<?xml version="1.0" encoding="UTF-8" standalone="no"?>
<!-- Created with Inkscape (http://www.inkscape.org/) -->

<svg
   xmlns:dc="http://purl.org/dc/elements/1.1/"
   xmlns:cc="http://creativecommons.org/ns#"
   xmlns:rdf="http://www.w3.org/1999/02/22-rdf-syntax-ns#"
   xmlns:svg="http://www.w3.org/2000/svg"
   xmlns="http://www.w3.org/2000/svg"
   xmlns:sodipodi="http://sodipodi.sourceforge.net/DTD/sodipodi-0.dtd"
   xmlns:inkscape="http://www.inkscape.org/namespaces/inkscape"
   width="1024"
   height="768"
   id="svg2"
   version="1.1"
   inkscape:version="0.47 r22583"
   sodipodi:docname="fundo_praca.svg"
   inkscape:export-filename="C:\Users\Jairo\Desktop\fundo_praca.png"
   inkscape:export-xdpi="90"
   inkscape:export-ydpi="90">
  <defs
     id="defs4">
    <inkscape:perspective
       sodipodi:type="inkscape:persp3d"
       inkscape:vp_x="0 : 526.18109 : 1"
       inkscape:vp_y="0 : 1000 : 0"
       inkscape:vp_z="744.09448 : 526.18109 : 1"
       inkscape:persp3d-origin="372.04724 : 350.78739 : 1"
       id="perspective10" />
    <inkscape:perspective
       id="perspective3630"
       inkscape:persp3d-origin="0.5 : 0.33333333 : 1"
       inkscape:vp_z="1 : 0.5 : 1"
       inkscape:vp_y="0 : 1000 : 0"
       inkscape:vp_x="0 : 0.5 : 1"
       sodipodi:type="inkscape:persp3d" />
    <inkscape:perspective
       id="perspective3710"
       inkscape:persp3d-origin="0.5 : 0.33333333 : 1"
       inkscape:vp_z="1 : 0.5 : 1"
       inkscape:vp_y="0 : 1000 : 0"
       inkscape:vp_x="0 : 0.5 : 1"
       sodipodi:type="inkscape:persp3d" />
  </defs>
  <sodipodi:namedview
     id="base"
     pagecolor="#ffffff"
     bordercolor="#666666"
     borderopacity="1.0"
     inkscape:pageopacity="0.0"
     inkscape:pageshadow="2"
     inkscape:zoom="0.64"
     inkscape:cx="429.71776"
     inkscape:cy="356.02026"
     inkscape:document-units="px"
     inkscape:current-layer="layer1"
     showgrid="false"
     showborder="true"
     borderlayer="false"
     inkscape:showpageshadow="false"
     inkscape:window-width="1280"
     inkscape:window-height="738"
     inkscape:window-x="-6"
     inkscape:window-y="-6"
     inkscape:window-maximized="1"
     showguides="true"
     inkscape:guide-bbox="true" />
  <metadata
     id="metadata7">
    <rdf:RDF>
      <cc:Work
         rdf:about="">
        <dc:format>image/svg+xml</dc:format>
        <dc:type
           rdf:resource="http://purl.org/dc/dcmitype/StillImage" />
        <dc:title />
      </cc:Work>
    </rdf:RDF>
  </metadata>
  <g
     inkscape:label="Camada 1"
     inkscape:groupmode="layer"
     id="layer1"
     transform="translate(0,-284.36218)">
    <path
       style="fill:#3c3c3c;stroke:#000000;stroke-width:1px;stroke-linecap:butt;stroke-linejoin:miter;stroke-opacity:1;fill-opacity:1"
       d="m -10.9375,128.15625 1041.4063,-7.8125 6.25,-136.718753 -1041.4063,12.5000001 -6.25,132.0312529 z"
       id="path3771"
       transform="translate(0,284.36218)" />
    <path
       style="fill:#3820e6;fill-opacity:1;stroke:#000000;stroke-width:1px;stroke-linecap:butt;stroke-linejoin:miter;stroke-opacity:1"
       d="m 734.71221,373.90074 -11.64142,-7.95299 -48.4518,-35.35534 25.41165,-9.11505 45.57524,28.72621 -10.89367,23.69717 z"
       id="path3700-7"
       sodipodi:nodetypes="cccccc" />
    <path
       transform="matrix(1.1137656,0,0,1.0290601,109.10404,271.14379)"
       d="m 553.125,96.125 c 0,20.71068 -16.78932,37.5 -37.5,37.5 -20.71068,0 -37.5,-16.78932 -37.5,-37.5 0,-20.710678 16.78932,-37.5 37.5,-37.5 20.71068,0 37.5,16.789322 37.5,37.5 z"
       sodipodi:ry="37.5"
       sodipodi:rx="37.5"
       sodipodi:cy="96.125"
       sodipodi:cx="515.625"
       id="path3696-4"
       style="fill:#5f5f5f;fill-opacity:1;stroke:#000000;stroke-width:0.93407711;stroke-linecap:round;stroke-linejoin:round;stroke-miterlimit:4;stroke-opacity:1;stroke-dasharray:none"
       sodipodi:type="arc" />
    <path
       sodipodi:type="arc"
       style="fill:#5f5f5f;fill-opacity:1;stroke:#000000;stroke-width:1;stroke-linecap:round;stroke-linejoin:round;stroke-miterlimit:4;stroke-opacity:1;stroke-dasharray:none"
       id="path3608-0"
       sodipodi:cx="515.625"
       sodipodi:cy="96.125"
       sodipodi:rx="37.5"
       sodipodi:ry="37.5"
       d="m 553.125,96.125 c 0,20.71068 -16.78932,37.5 -37.5,37.5 -20.71068,0 -37.5,-16.78932 -37.5,-37.5 0,-20.710678 16.78932,-37.5 37.5,-37.5 20.71068,0 37.5,16.789322 37.5,37.5 z"
       transform="translate(175.91269,277.25174)" />
    <path
       style="fill:#3820e6;stroke:#000000;stroke-width:1px;stroke-linecap:butt;stroke-linejoin:miter;stroke-opacity:1;fill-opacity:1"
       d="M 533.66141,95.777028 522.1581,87.133506 473.7063,51.778167 499.11795,42.663119 544.69319,71.389332 533.66141,95.777028 z"
       id="path3700"
       transform="translate(0,284.36218)"
       sodipodi:nodetypes="cccccc" />
    <path
       transform="matrix(1.1137656,0,0,1.0290601,-91.808655,276.69173)"
       d="m 553.125,96.125 c 0,20.71068 -16.78932,37.5 -37.5,37.5 -20.71068,0 -37.5,-16.78932 -37.5,-37.5 0,-20.710678 16.78932,-37.5 37.5,-37.5 20.71068,0 37.5,16.789322 37.5,37.5 z"
       sodipodi:ry="37.5"
       sodipodi:rx="37.5"
       sodipodi:cy="96.125"
       sodipodi:cx="515.625"
       id="path3696"
       style="fill:#5f5f5f;fill-opacity:1;stroke:#000000;stroke-width:0.93407711;stroke-linecap:round;stroke-linejoin:round;stroke-miterlimit:4;stroke-opacity:1;stroke-dasharray:none"
       sodipodi:type="arc" />
    <path
       sodipodi:type="arc"
       style="fill:#5f5f5f;stroke:#000000;stroke-width:1;stroke-linecap:round;stroke-linejoin:round;stroke-miterlimit:4;stroke-opacity:1;stroke-dasharray:none;fill-opacity:1"
       id="path3608"
       sodipodi:cx="515.625"
       sodipodi:cy="96.125"
       sodipodi:rx="37.5"
       sodipodi:ry="37.5"
       d="m 553.125,96.125 c 0,20.71068 -16.78932,37.5 -37.5,37.5 -20.71068,0 -37.5,-16.78932 -37.5,-37.5 0,-20.710678 16.78932,-37.5 37.5,-37.5 20.71068,0 37.5,16.789322 37.5,37.5 z"
       transform="translate(-25,282.79968)" />
    <path
       style="fill:#30ea3b;stroke:#000000;stroke-width:1px;stroke-linecap:butt;stroke-linejoin:miter;stroke-opacity:1;fill-opacity:1"
       d="m -1.7578125,215.65625 0,560.9375 L 473.4375,778.9375 -1.7578125,215.65625 z"
       id="path3691"
       transform="translate(0,284.36218)"
       sodipodi:nodetypes="cccc" />
    <path
       style="fill:#d7d49a;stroke:#000000;stroke-width:1px;stroke-linecap:butt;stroke-linejoin:miter;stroke-opacity:1;opacity:1;fill-opacity:1"
       d="m -3.9062499,408.22156 1039.0624499,-7.03125 -1.1718,91.79687 -624.08344,9.15753 615.95434,431.74675 2.2697,122.76764 -555.07813,2.7343 L 6.25,502.36218 l -9.7656249,-1.5625 -0.390625,-92.57812 z"
       id="path2816"
       sodipodi:nodetypes="cccccccccc" />
    <path
       style="fill:#30ea3b;stroke:#000000;stroke-width:1px;stroke-linecap:butt;stroke-linejoin:miter;stroke-opacity:1;fill-opacity:1"
       d="m 411.94596,209.3111 617.74154,-9.27985 -2.6879,444.09599 -611.80793,-434.95425 -3.24571,0.13811 z"
       id="path2820"
       transform="translate(0,284.36218)"
       sodipodi:nodetypes="ccccc" />
    <path
       style="fill:#3820e6;stroke:#000000;stroke-width:1px;stroke-linecap:butt;stroke-linejoin:miter;stroke-opacity:1;fill-opacity:1"
       d="m 443.65522,96.504124 -36.28281,0.48531 -75.3019,-68.509582 -0.0948,-40.625 457.08677,2.020146 -10.9375,85.9375 -4.6875,14.0625 -38.41529,0 c -5.3671,-60.875302 -87.45934,-55.169797 -83.45971,6.25 L 533.91735,96.030218 C 528.13784,34.54073 452.91022,38.019607 443.65522,96.504124 z"
       id="path3614"
       transform="translate(0,284.36218)"
       sodipodi:nodetypes="ccccccccccc" />
    <path
       sodipodi:type="arc"
       style="fill:#9c9c9c;fill-opacity:1;stroke:#000000;stroke-width:1;stroke-linecap:round;stroke-linejoin:round;stroke-miterlimit:4;stroke-opacity:1;stroke-dasharray:none"
       id="path3762"
       sodipodi:cx="515.625"
       sodipodi:cy="96.125"
       sodipodi:rx="24.241747"
       sodipodi:ry="24.241747"
       d="m 539.86675,96.125 c 0,13.38835 -10.8534,24.24175 -24.24175,24.24175 -13.38835,0 -24.24175,-10.8534 -24.24175,-24.24175 0,-13.388347 10.8534,-24.241747 24.24175,-24.241747 13.38835,0 24.24175,10.8534 24.24175,24.241747 z"
       transform="translate(177.18834,276.72298)" />
    <path
       transform="translate(-25,282.79968)"
       d="m 539.86675,96.125 c 0,13.38835 -10.8534,24.24175 -24.24175,24.24175 -13.38835,0 -24.24175,-10.8534 -24.24175,-24.24175 0,-13.388347 10.8534,-24.241747 24.24175,-24.241747 13.38835,0 24.24175,10.8534 24.24175,24.241747 z"
       sodipodi:ry="24.241747"
       sodipodi:rx="24.241747"
       sodipodi:cy="96.125"
       sodipodi:cx="515.625"
       id="path3760"
       style="fill:#9c9c9c;fill-opacity:1;stroke:#000000;stroke-width:1;stroke-linecap:round;stroke-linejoin:round;stroke-miterlimit:4;stroke-opacity:1;stroke-dasharray:none"
       sodipodi:type="arc" />
    <path
       transform="matrix(0.99997831,-0.00658689,0,1,0,0)"
       style="fill:#7c7c7c;fill-opacity:1;stroke:#000000;stroke-width:1.00001085;stroke-linecap:round;stroke-linejoin:round;stroke-miterlimit:4;stroke-opacity:1"
       d="M -9.4934128,406.07048 1031.731,405.28004 l 0,5.52427 -1041.2244128,0.79044 0,-5.52427 z"
       id="rect2847"
       sodipodi:nodetypes="ccccc" />
    <path
       style="fill:#bf8828;fill-opacity:1;stroke:#000000;stroke-width:1px;stroke-linecap:butt;stroke-linejoin:miter;stroke-opacity:1"
       d="m 568.75,546.11218 c 4.72048,-5.40734 9.05316,-11.45934 25,-18.75 11.22413,-94.93445 13.7802,-159.82682 4.6875,-252.34375 l 85.15625,0.78125 c -0.37252,78.8382 -0.88756,157.5598 21.09375,254.6875 10.1535,11.81709 11.83666,26.72833 9.76562,37.5 -7.65684,-9.66639 -21.68386,-14.09192 -33.20312,-13.67188 -3.36315,8.40016 -10.43399,13.88031 -18.75,19.92188 -11.97655,-6.33014 -17.47654,-11.04019 -21.875,-18.75 -13.13867,-1.69998 -23.52375,5.02091 -29.6875,14.0625 -6.70437,-7.55373 -8.9073,-7.07166 -7.03125,-21.09375 -7.00879,-4.80873 -21.7775,-6.62397 -35.15625,-2.34375 z"
       id="path2826"
       sodipodi:nodetypes="cccccccccccc" />
    <path
       style="fill:#bf8928;stroke:#000000;stroke-width:1px;stroke-linecap:butt;stroke-linejoin:miter;stroke-opacity:1;fill-opacity:1"
       d="m 815.625,450.8125 c 13.9836,-13.90471 21.34335,-14.56169 29.6875,-17.1875 11.78711,-98.67719 17.05497,-207.43815 -10.15625,-349.218752 l 94.53125,13.28125 c -5.0571,103.941412 3.55298,236.895192 28.125,342.187502 14.94072,6.30021 17.00222,14.01576 20.77015,31.69138 -16.1312,-13.89205 -29.26406,-12.08088 -39.52015,-9.81638 5.43438,15.67033 3.20014,22.14547 -5.12888,31.88095 -5.0476,-13.45045 -12.74838,-28.75006 -32.4889,-29.59946 C 890.2589,479.83045 876.79343,468.69962 871.875,493 854.98045,477.79204 859.773,469.82261 855.98192,456.32051 848.3048,451.04449 840.09548,447.69184 815.625,450.8125 z"
       id="path2828"
       transform="translate(0,284.36218)"
       sodipodi:nodetypes="cccccccccccc" />
    <path
       style="fill:#28bf35;stroke:#000000;stroke-width:1px;stroke-linecap:butt;stroke-linejoin:miter;stroke-opacity:1;fill-opacity:1"
       d="m 712.89063,-15.593752 c 0.88654,16.17994037 2.48638,32.478763 9.53463,49.685654 1.53647,22.26811 6.81033,31.555728 17.80912,38.204971 7.22036,11.567465 22.8344,21.419973 39.84374,21.875002 14.04836,2.936761 33.09696,10.014025 63.67188,-1.562502 18.20515,7.644717 41.24623,10.587227 55.05842,6.759582 9.56939,7.006075 37.9468,12.096495 56.66033,9.256045 15.80289,2.5736 27.67301,-0.60573 39.45313,-7.03125 16.07212,-2.695043 31.26952,-8.014408 42.18752,-26.171877 l -3.125,-90.234375 -321.09377,-0.78125 z"
       id="path2830"
       transform="translate(0,284.36218)"
       sodipodi:nodetypes="ccccccccccc" />
    <path
       style="fill:#26b22d;fill-opacity:1;stroke:#000000;stroke-width:0.428;stroke-linecap:round;stroke-linejoin:round;stroke-miterlimit:4;stroke-opacity:1"
       d="m -135.67928,356.13915 c 12.89718,12.40739 -1.77961,65.83192 -14.61804,68.17473 -1.08386,17.58848 -25.46826,45.29172 -46.0432,45.6789 -21.45487,16.97208 -40.26109,25.17606 -65.29677,16.02986 -30.44754,14.25387 -50.99878,13.14047 -70.05643,9.70779 -0.97918,-89.54187 -0.86058,-197.36809 0.60751,-267.34818 8.11609,-2.50558 17.12231,-2.82125 29.02099,-2.39435 23.05032,-5.34015 46.699,-8.72909 76.23859,7.09191 29.91504,5.01878 50.02311,20.69756 61.80661,45.42498 23.1295,11.83695 31.84888,62.03659 28.34074,77.63436 z"
       id="path3620"
       sodipodi:nodetypes="cccccccccc"
       transform="matrix(1.2637185,0,0,1.1625949,393.29003,445.11288)" />
    <path
       style="fill:#7c7c7c;stroke:#000000;stroke-width:1px;stroke-linecap:round;stroke-linejoin:round;stroke-opacity:1;fill-opacity:1"
       d="m 476.04411,770.46705 -16.92386,0.0395 -461.2643533,-548.94147 0.049676,-7.25875 10.6230217,-0.20616 467.5155156,556.36688 z"
       id="path3650"
       transform="translate(0,284.36218)"
       sodipodi:nodetypes="cccccc" />
    <path
       style="fill:#7c7c7c;stroke:#000000;stroke-width:1px;stroke-linecap:round;stroke-linejoin:round;stroke-opacity:1;fill-opacity:1"
       d="m 1027.323,630.2536 -0.1058,12.17605 -631.26175,-434.24013 17.4406,-0.25159 613.92695,422.31567 z"
       id="path3662"
       transform="translate(0,284.36218)"
       sodipodi:nodetypes="ccccc" />
    <path
       style="fill:#7c7c7c;stroke:#000000;stroke-width:1px;stroke-linecap:round;stroke-linejoin:round;stroke-opacity:1;fill-opacity:1"
       d="m 395.99758,208.2185 -0.4846,15.78368 631.89612,434.67651 -0.166,-16.23117 L 395.99758,208.2185 z"
       id="path3664"
       transform="translate(0,284.36218)"
       sodipodi:nodetypes="ccccc" />
    <path
       style="fill:#7c7c7c;stroke:#000000;stroke-width:1px;stroke-linecap:round;stroke-linejoin:round;stroke-opacity:1;fill-opacity:1"
       d="M 459.20509,770.62403 -1.4501213,220.13035 l -0.2071602,2.90024 458.1002315,547.66249 2.76214,-0.0691 z"
       id="path3666"
       transform="translate(0,284.36218)" />
    <path
       style="fill:#bf8928;stroke:#000000;stroke-width:1px;stroke-linecap:round;stroke-linejoin:round;stroke-opacity:1;fill-opacity:1"
       d="m 910.38507,159.35886 c 17.74007,-0.95297 42.19938,-3.79271 77.94357,-13.52767 13.91026,-0.39929 18.33986,20.35578 4.64011,26.85631 -5.52681,-1.23563 -70.54896,10.43155 -82.56877,12.50182 l -0.0149,-25.83047 -10e-6,1e-5 z"
       id="path3672"
       transform="translate(0,284.36218)"
       sodipodi:nodetypes="cccccc" />
    <rect
       style="fill:#bf8928;fill-opacity:1;stroke:none"
       id="rect3674"
       width="14.363107"
       height="24.997328"
       x="900.18011"
       y="444.13986"
       ry="7.3438487"
       rx="4.695631" />
    <path
       style="fill:none;stroke:#000000;stroke-width:1px;stroke-linecap:butt;stroke-linejoin:miter;stroke-opacity:1"
       d="m 988.29222,145.82889 c -14.80899,4.57807 -10.39524,27.00282 4.1432,26.79273"
       id="path3676"
       transform="translate(0,284.36218)"
       sodipodi:nodetypes="cc" />
    <path
       style="fill:none;stroke:#000000;stroke-width:1px;stroke-linecap:butt;stroke-linejoin:miter;stroke-opacity:1"
       d="M 407.13883,97.077196 408.5199,32.08011 C 450.0516,4.784759 541.59166,-7.7723285 547.64351,-5.272135"
       id="path3730"
       transform="translate(0,284.36218)"
       sodipodi:nodetypes="ccc" />
    <path
       style="fill:#8885a0;fill-opacity:1;stroke:#000000;stroke-width:1px;stroke-linecap:butt;stroke-linejoin:miter;stroke-opacity:1"
       d="m 327.81814,317.90973 78.7405,70.71068 c 7.2194,2.60186 8.66931,-8.05455 4.31314,-13.64888 l -78.60647,-69.83465 c -4.91911,-1.06919 -7.59464,7.55957 -4.44717,12.77285 z"
       id="path3698"
       sodipodi:nodetypes="ccccc" />
    <path
       style="fill:none;stroke:#000000;stroke-width:1px;stroke-linecap:butt;stroke-linejoin:miter;stroke-opacity:1"
       d="M 408.5199,316.5804 335.04708,253.46559"
       id="path3732"
       sodipodi:nodetypes="cc" />
    <path
       style="fill:none;stroke:#000000;stroke-width:1px;stroke-linecap:butt;stroke-linejoin:miter;stroke-opacity:1"
       d="m 549.80315,95.696128 -2.34782,-117.666988 2.20971,-7.733981"
       id="path3734"
       transform="translate(0,284.36218)"
       sodipodi:nodetypes="ccc" />
    <path
       style="fill:#eb0202;fill-opacity:1;stroke:#000000;stroke-width:1px;stroke-linecap:butt;stroke-linejoin:miter;stroke-opacity:1"
       d="m 392.4995,317.13792 c 4.14321,-0.0123 8.28641,0.71083 12.42961,9.39126 l 1e-5,31.07403 c -3.44959,2.05022 -9.30329,-2.15043 -12.42962,-9.52937 l 0,-30.93592 z"
       id="path3736"
       sodipodi:nodetypes="ccccc" />
    <path
       style="fill:#fd3838;fill-opacity:1;stroke:#000000;stroke-width:1px;stroke-linecap:butt;stroke-linejoin:miter;stroke-opacity:1"
       d="m 404.92912,347.86668 -12.36056,-10.77233 0,-9.94369 12.29151,10.15085 0.0691,10.56517 z"
       id="path3738"
       sodipodi:nodetypes="ccccc" />
    <path
       sodipodi:nodetypes="ccccc"
       id="path3754"
       d="m 334.21843,264.93355 c 4.14321,-0.0123 8.28641,0.71083 12.42961,9.39127 l 1e-5,31.07403 c -3.44959,2.05022 -9.30329,-2.15044 -12.42962,-9.52937 l 0,-30.93593 z"
       style="fill:#eb0202;fill-opacity:1;stroke:#000000;stroke-width:1px;stroke-linecap:butt;stroke-linejoin:miter;stroke-opacity:1" />
    <path
       sodipodi:nodetypes="ccccc"
       id="path3756"
       d="m 346.64805,295.66232 -12.36056,-10.77233 0,-9.94369 12.29151,10.15085 0.0691,10.56517 z"
       style="fill:#fd3838;fill-opacity:1;stroke:#000000;stroke-width:1px;stroke-linecap:butt;stroke-linejoin:miter;stroke-opacity:1" />
    <path
       style="fill:#eeeeee;fill-opacity:1;stroke:#000000;stroke-width:1;stroke-linecap:round;stroke-linejoin:round;stroke-miterlimit:4;stroke-opacity:1;stroke-dasharray:none"
       d="m 356.62419,298.10552 22.1939,18.45975 -0.43792,18.11135 -22.1939,-18.45975 0.43792,-18.11135 z"
       id="rect3764"
       sodipodi:nodetypes="ccccc" />
    <path
       style="fill:#db1dd2;fill-opacity:1;stroke:#000000;stroke-width:1;stroke-linecap:round;stroke-linejoin:round;stroke-miterlimit:4;stroke-opacity:1"
       d="m 63.28123,766.03405 c 0.22099,9.17023 -10.230572,8.50358 -11.81788,0.0254 -7.916582,5.51017 -14.464125,-10.32479 -7.11764,-12.29639 -5.745664,-5.53191 2.057239,-14.70275 11.271385,-9.1811 9.115975,-12.28828 19.270955,1.09774 13.269235,7.49366 9.88806,2.42168 5.47058,19.11217 -5.6051,13.95846 z"
       id="path3621"
       sodipodi:nodetypes="cccccc" />
    <path
       style="fill:#feff0a;fill-opacity:1;stroke:#000000;stroke-width:1;stroke-linecap:round;stroke-linejoin:round;stroke-miterlimit:4;stroke-opacity:1"
       d="m 64.64844,756.51257 c 0.14649,3.76294 -3.53351,7.32422 -7.324221,7.08008 -3.937193,0.19531 -6.103515,-3.72882 -6.103516,-6.44531 -0.475834,-5.51293 2.919061,-7.87614 6.884766,-7.42188 3.595401,0 6.542971,3.65893 6.542971,6.78711 z"
       id="path3624"
       sodipodi:nodetypes="ccccc" />
    <path
       sodipodi:nodetypes="cccccc"
       id="path3627"
       d="m 147.65623,820.72155 c 0.22099,9.17023 -10.23057,8.50358 -11.81788,0.0254 -7.91658,5.51017 -14.46413,-10.32479 -7.11764,-12.29639 -5.74566,-5.53191 2.05724,-14.70275 11.27138,-9.1811 9.11598,-12.28828 19.27096,1.09774 13.26924,7.49366 9.88806,2.42168 5.47058,19.11217 -5.6051,13.95846 z"
       style="fill:#db1dd2;fill-opacity:1;stroke:#000000;stroke-width:1;stroke-linecap:round;stroke-linejoin:round;stroke-miterlimit:4;stroke-opacity:1" />
    <path
       sodipodi:nodetypes="ccccc"
       id="path3629"
       d="m 149.02344,811.20007 c 0.14649,3.76294 -3.53351,7.32422 -7.32422,7.08008 -3.93719,0.19531 -6.10352,-3.72882 -6.10352,-6.44531 -0.47583,-5.51293 2.91906,-7.87614 6.88477,-7.42188 3.5954,0 6.54297,3.65893 6.54297,6.78711 z"
       style="fill:#feff0a;fill-opacity:1;stroke:#000000;stroke-width:1;stroke-linecap:round;stroke-linejoin:round;stroke-miterlimit:4;stroke-opacity:1" />
    <path
       style="fill:#db1dd2;fill-opacity:1;stroke:#000000;stroke-width:1;stroke-linecap:round;stroke-linejoin:round;stroke-miterlimit:4;stroke-opacity:1"
       d="m 66.40623,857.4403 c 0.22099,9.17023 -10.23057,8.50358 -11.81788,0.0254 -7.91658,5.51017 -14.46413,-10.32479 -7.11764,-12.29639 -5.74566,-5.53191 2.05724,-14.70275 11.27138,-9.1811 9.11598,-12.28828 19.27096,1.09774 13.26924,7.49366 9.88806,2.42168 5.47058,19.11217 -5.6051,13.95846 z"
       id="path3631"
       sodipodi:nodetypes="cccccc" />
    <path
       style="fill:#feff0a;fill-opacity:1;stroke:#000000;stroke-width:1;stroke-linecap:round;stroke-linejoin:round;stroke-miterlimit:4;stroke-opacity:1"
       d="m 67.77344,847.91882 c 0.14649,3.76294 -3.53351,7.32422 -7.32422,7.08008 -3.93719,0.19531 -6.10352,-3.72882 -6.10352,-6.44531 -0.47583,-5.51293 2.91906,-7.87614 6.88477,-7.42188 3.5954,0 6.54297,3.65893 6.54297,6.78711 z"
       id="path3633"
       sodipodi:nodetypes="ccccc" />
    <path
       sodipodi:nodetypes="cccccc"
       id="path3635"
       d="m 162.49998,919.15905 c 0.22099,9.17023 -10.23057,8.50358 -11.81788,0.0254 -7.91658,5.51017 -14.46413,-10.32479 -7.11764,-12.29639 -5.74566,-5.53191 2.05724,-14.70275 11.27138,-9.1811 9.11598,-12.28828 19.27096,1.09774 13.26924,7.49366 9.88806,2.42168 5.47058,19.11217 -5.6051,13.95846 z"
       style="fill:#db1dd2;fill-opacity:1;stroke:#000000;stroke-width:1;stroke-linecap:round;stroke-linejoin:round;stroke-miterlimit:4;stroke-opacity:1" />
    <path
       style="fill:#30dc00;fill-opacity:1;stroke:#000000;stroke-width:1px;stroke-linecap:butt;stroke-linejoin:miter;stroke-opacity:1"
       d="m 981.55286,595.29085 c 0.35626,21.18234 0.52213,41.41271 -1.17188,52.34375 l -3.125,0 c 0.95769,-17.57813 2.30381,-34.76563 4.29688,-52.34375 z"
       id="path3683"
       sodipodi:nodetypes="cccc" />
    <path
       sodipodi:nodetypes="ccccc"
       id="path3637"
       d="m 163.86719,909.63757 c 0.14649,3.76294 -3.53351,7.32422 -7.32422,7.08008 -3.93719,0.19531 -6.10352,-3.72882 -6.10352,-6.44531 -0.47583,-5.51293 2.91906,-7.87614 6.88477,-7.42188 3.5954,0 6.54297,3.65893 6.54297,6.78711 z"
       style="fill:#feff0a;fill-opacity:1;stroke:#000000;stroke-width:1;stroke-linecap:round;stroke-linejoin:round;stroke-miterlimit:4;stroke-opacity:1" />
    <path
       sodipodi:nodetypes="cccc"
       id="path3685"
       d="m 805.88102,532.31415 c 0.35626,21.18234 0.52213,41.41271 -1.17188,52.34375 l -3.125,0 c 0.95769,-17.57813 2.30381,-34.76563 4.29688,-52.34375 z"
       style="fill:#30dc00;fill-opacity:1;stroke:#000000;stroke-width:1px;stroke-linecap:butt;stroke-linejoin:miter;stroke-opacity:1" />
    <path
       style="fill:#db1dd2;fill-opacity:1;stroke:#000000;stroke-width:1;stroke-linecap:round;stroke-linejoin:round;stroke-miterlimit:4;stroke-opacity:1"
       d="m 75.78123,949.6278 c 0.22099,9.17023 -10.23057,8.50358 -11.81788,0.0254 -7.91658,5.51017 -14.46413,-10.32479 -7.11764,-12.29639 -5.74566,-5.53191 2.05724,-14.70275 11.27138,-9.1811 9.11598,-12.28828 19.27096,1.09774 13.26924,7.49366 9.88806,2.42168 5.47058,19.11217 -5.6051,13.95846 z"
       id="path3639"
       sodipodi:nodetypes="cccccc" />
    <path
       style="fill:#30dc00;fill-opacity:1;stroke:#000000;stroke-width:1px;stroke-linecap:butt;stroke-linejoin:miter;stroke-opacity:1"
       d="m 740.69462,606.33939 c 0.35625,21.18234 0.52212,41.41271 -1.17188,52.34375 l -3.125,0 c 0.95768,-17.57813 2.3038,-34.76563 4.29688,-52.34375 z"
       id="path3687"
       sodipodi:nodetypes="cccc" />
    <path
       style="fill:#feff0a;fill-opacity:1;stroke:#000000;stroke-width:1;stroke-linecap:round;stroke-linejoin:round;stroke-miterlimit:4;stroke-opacity:1"
       d="m 77.14844,940.10632 c 0.14649,3.76294 -3.53351,7.32422 -7.32422,7.08008 -3.93719,0.19531 -6.10352,-3.72882 -6.10352,-6.44531 -0.47583,-5.51293 2.91906,-7.87614 6.88477,-7.42188 3.5954,0 6.54297,3.65893 6.54297,6.78711 z"
       id="path3641"
       sodipodi:nodetypes="ccccc" />
    <path
       sodipodi:nodetypes="cccc"
       id="path3689"
       d="m 43.531524,639.48502 c 0.356258,21.18234 0.522123,41.41271 -1.17188,52.34375 l -3.125,0 c 0.957689,-17.57813 2.303809,-34.76563 4.29688,-52.34375 z"
       style="fill:#30dc00;fill-opacity:1;stroke:#000000;stroke-width:1px;stroke-linecap:butt;stroke-linejoin:miter;stroke-opacity:1" />
    <path
       sodipodi:nodetypes="cccccc"
       id="path3658"
       d="m 743.68194,615.4772 c 0.22099,9.17023 -10.23057,8.50358 -11.81788,0.0254 -7.91658,5.51017 -14.46413,-10.32479 -7.11764,-12.29639 -5.74566,-5.53191 2.05724,-14.70275 11.27138,-9.1811 9.11598,-12.28828 19.27096,1.09774 13.26924,7.49366 9.88806,2.42168 5.47058,19.11217 -5.6051,13.95846 z"
       style="fill:#db1dd2;fill-opacity:1;stroke:#000000;stroke-width:1;stroke-linecap:round;stroke-linejoin:round;stroke-miterlimit:4;stroke-opacity:1" />
    <path
       style="fill:#30dc00;fill-opacity:1;stroke:#000000;stroke-width:1px;stroke-linecap:butt;stroke-linejoin:miter;stroke-opacity:1"
       d="m 272.23637,966.52191 c 0.35626,21.18234 0.52213,41.41269 -1.17188,52.34379 l -3.125,0 c 0.95769,-17.5782 2.30381,-34.76567 4.29688,-52.34379 z"
       id="path3692"
       sodipodi:nodetypes="cccc" />
    <path
       sodipodi:nodetypes="ccccc"
       id="path3660"
       d="m 745.04915,605.95572 c 0.14649,3.76294 -3.53351,7.32422 -7.32422,7.08008 -3.93719,0.19531 -6.10352,-3.72882 -6.10352,-6.44531 -0.47583,-5.51293 2.91906,-7.87614 6.88477,-7.42188 3.5954,0 6.54297,3.65893 6.54297,6.78711 z"
       style="fill:#feff0a;fill-opacity:1;stroke:#000000;stroke-width:1;stroke-linecap:round;stroke-linejoin:round;stroke-miterlimit:4;stroke-opacity:1" />
    <path
       style="fill:#db1dd2;fill-opacity:1;stroke:#000000;stroke-width:1;stroke-linecap:round;stroke-linejoin:round;stroke-miterlimit:4;stroke-opacity:1"
       d="m 809.9732,539.24225 c 0.22099,9.17023 -10.23057,8.50358 -11.81788,0.0254 -7.91658,5.51017 -14.46413,-10.32479 -7.11764,-12.29639 -5.74566,-5.53191 2.05724,-14.70275 11.27138,-9.1811 9.11598,-12.28828 19.27096,1.09774 13.26924,7.49366 9.88806,2.42168 5.47058,19.11217 -5.6051,13.95846 z"
       id="path3663"
       sodipodi:nodetypes="cccccc" />
    <path
       style="fill:#feff0a;fill-opacity:1;stroke:#000000;stroke-width:1;stroke-linecap:round;stroke-linejoin:round;stroke-miterlimit:4;stroke-opacity:1"
       d="m 811.34041,529.72077 c 0.14649,3.76294 -3.53351,7.32422 -7.32422,7.08008 -3.93719,0.19531 -6.10352,-3.72882 -6.10352,-6.44531 -0.47583,-5.51293 2.91906,-7.87614 6.88477,-7.42188 3.5954,0 6.54297,3.65893 6.54297,6.78711 z"
       id="path3665"
       sodipodi:nodetypes="ccccc" />
    <path
       sodipodi:nodetypes="cccccc"
       id="path3667"
       d="m 986.7499,605.53351 c 0.22099,9.17023 -10.23057,8.50358 -11.81788,0.0254 -7.91658,5.51017 -14.46413,-10.32479 -7.11764,-12.29639 -5.74566,-5.53191 2.05724,-14.70275 11.27138,-9.1811 9.11598,-12.28828 19.27096,1.09774 13.26924,7.49366 9.8881,2.42168 5.47058,19.11217 -5.6051,13.95846 z"
       style="fill:#db1dd2;fill-opacity:1;stroke:#000000;stroke-width:1;stroke-linecap:round;stroke-linejoin:round;stroke-miterlimit:4;stroke-opacity:1" />
    <path
       sodipodi:nodetypes="ccccc"
       id="path3669"
       d="m 988.11711,596.01203 c 0.14649,3.76294 -3.53351,7.32422 -7.32422,7.08008 -3.93719,0.19531 -6.10352,-3.72882 -6.10352,-6.44531 -0.47583,-5.51293 2.91906,-7.87614 6.88477,-7.42188 3.5954,0 6.54297,3.65893 6.54297,6.78711 z"
       style="fill:#feff0a;fill-opacity:1;stroke:#000000;stroke-width:1;stroke-linecap:round;stroke-linejoin:round;stroke-miterlimit:4;stroke-opacity:1" />
    <path
       sodipodi:nodetypes="cccccc"
       id="path3673"
       d="m 279.83268,973.74667 c 0.22099,9.17023 -10.23057,8.50358 -11.81788,0.0254 -7.91658,5.51017 -14.46412,-10.32479 -7.11764,-12.29639 -5.74566,-5.53191 2.05724,-14.70275 11.27139,-9.1811 9.11597,-12.28828 19.27095,1.09774 13.26923,7.49366 9.88806,2.42168 5.47058,19.11217 -5.6051,13.95846 z"
       style="fill:#db1dd2;fill-opacity:1;stroke:#000000;stroke-width:1;stroke-linecap:round;stroke-linejoin:round;stroke-miterlimit:4;stroke-opacity:1" />
    <path
       sodipodi:nodetypes="ccccc"
       id="path3675"
       d="m 281.19989,964.22519 c 0.14649,3.76294 -3.53351,7.32422 -7.32422,7.08008 -3.93719,0.19531 -6.10351,-3.72882 -6.10352,-6.44531 -0.47583,-5.51293 2.91907,-7.87614 6.88477,-7.42188 3.5954,0 6.54297,3.65893 6.54297,6.78711 z"
       style="fill:#feff0a;fill-opacity:1;stroke:#000000;stroke-width:1;stroke-linecap:round;stroke-linejoin:round;stroke-miterlimit:4;stroke-opacity:1" />
    <path
       style="fill:#db1dd2;fill-opacity:1;stroke:#000000;stroke-width:1;stroke-linecap:round;stroke-linejoin:round;stroke-miterlimit:4;stroke-opacity:1"
       d="m 48.918122,648.91949 c 0.22099,9.17023 -10.23057,8.50358 -11.81788,0.0254 -7.91658,5.51017 -14.46412,-10.32479 -7.11764,-12.29639 -5.74566,-5.53191 2.05724,-14.70275 11.27139,-9.1811 9.11597,-12.28828 19.27095,1.09774 13.26923,7.49366 9.88806,2.42168 5.47058,19.11217 -5.6051,13.95846 z"
       id="path3677"
       sodipodi:nodetypes="cccccc" />
    <path
       style="fill:#feff0a;fill-opacity:1;stroke:#000000;stroke-width:1;stroke-linecap:round;stroke-linejoin:round;stroke-miterlimit:4;stroke-opacity:1"
       d="m 50.285332,639.39801 c 0.14649,3.76294 -3.53351,7.32422 -7.32422,7.08008 -3.93719,0.19531 -6.10351,-3.72882 -6.10352,-6.44531 -0.47583,-5.51293 2.91907,-7.87614 6.88477,-7.42188 3.5954,0 6.54297,3.65893 6.54297,6.78711 z"
       id="path3679"
       sodipodi:nodetypes="ccccc" />
  </g>
</svg>
